<svg width="58" height="58" viewBox="0 0 58 58" fill="none" xmlns="http://www.w3.org/2000/svg">
<path d="M21.355 9.82222C21.355 8.81584 22.1709 8 23.1773 8H30.4662C31.4725 8 32.2884 8.81584 32.2884 9.82222V10.7333C32.2884 13.2493 30.2488 15.2889 27.7328 15.2889H25.9106C23.3946 15.2889 21.355 13.2493 21.355 10.7333V9.82222Z" fill="#FDC886"/>
<path d="M20.2994 19.448C20.9539 18.5356 22.0115 18.0222 23.1344 18.0222H30.509C31.6319 18.0222 32.6895 18.5356 33.344 19.448C35.5301 22.4955 40.43 29.8497 41.3995 35.7889C41.7804 38.1224 42.1832 39.9719 41.661 41.8605C40.7371 45.2017 36.7376 46.2667 33.271 46.2667H20.3723C16.9058 46.2667 12.9062 45.2017 11.9824 41.8605C11.4602 39.9719 11.863 38.1224 12.2439 35.7889C13.2134 29.8497 18.1133 22.4955 20.2994 19.448Z" fill="#FDC886"/>
<path d="M27.4413 40.104C27.1255 40.104 26.8643 39.9947 26.6578 39.776C26.4513 39.5695 26.348 39.3144 26.348 39.0107V37.9356C25.6434 37.887 25.0178 37.7777 24.4711 37.6076C23.9366 37.4254 23.481 37.2371 23.1044 37.0427C22.7643 36.8726 22.5517 36.6357 22.4667 36.332C22.3816 36.0162 22.3938 35.7186 22.5031 35.4391C22.6246 35.1476 22.819 34.9411 23.0862 34.8196C23.3656 34.686 23.6936 34.7103 24.0702 34.8925C24.3618 35.0504 24.7687 35.2144 25.2911 35.3845C25.8135 35.5424 26.4513 35.6214 27.2044 35.6214C28.0427 35.6214 28.6379 35.4877 28.9902 35.2205C29.3425 34.9532 29.5187 34.6191 29.5187 34.2183C29.5187 33.8903 29.3972 33.6169 29.1542 33.3983C28.9113 33.1796 28.4739 33.0034 27.8422 32.8698L25.8378 32.4325C23.6268 31.9466 22.5213 30.7682 22.5213 28.8974C22.5213 27.8769 22.8676 27.0144 23.56 26.3098C24.2524 25.6052 25.1818 25.1618 26.348 24.9796V23.8316C26.348 23.5279 26.4513 23.2728 26.6578 23.0663C26.8643 22.8476 27.1255 22.7383 27.4413 22.7383C27.745 22.7383 28.0002 22.8476 28.2067 23.0663C28.4132 23.2728 28.5164 23.5279 28.5164 23.8316V24.9249C28.9659 24.9857 29.4276 25.095 29.9013 25.2529C30.3873 25.4109 30.8124 25.6174 31.1769 25.8725C31.4684 26.0547 31.6446 26.2916 31.7053 26.5831C31.7782 26.8626 31.7539 27.1298 31.6324 27.3849C31.511 27.64 31.3105 27.8223 31.0311 27.9316C30.7639 28.0288 30.4359 27.9802 30.0471 27.7858C29.7191 27.6279 29.3607 27.4943 28.972 27.3849C28.5833 27.2756 28.1034 27.2209 27.5324 27.2209C26.8279 27.2209 26.2751 27.3667 25.8742 27.6583C25.4733 27.9498 25.2729 28.3264 25.2729 28.788C25.2729 29.116 25.3883 29.3894 25.6191 29.608C25.8621 29.8146 26.2812 29.9846 26.8764 30.1183L28.8991 30.5556C30.0532 30.8107 30.9036 31.2298 31.4502 31.8129C32.009 32.3839 32.2884 33.1189 32.2884 34.0178C32.2884 35.0504 31.9362 35.9008 31.2316 36.5689C30.5391 37.2371 29.6341 37.6683 28.5164 37.8627V39.0107C28.5164 39.3144 28.4132 39.5695 28.2067 39.776C28.0002 39.9947 27.745 40.104 27.4413 40.104Z" fill="#FFF4E7"/>
<circle cx="39.9778" cy="41.7111" r="6.37778" fill="#FDC886" stroke="#FFF4E7" stroke-width="1.82222"/>
<rect x="38.533" y="38.9778" width="5.46667" height="1.82222" rx="0.911111" transform="rotate(45 38.533 38.9778)" fill="#FFF4E7"/>
<rect x="37.2444" y="42.8433" width="5.46667" height="1.82222" rx="0.911111" transform="rotate(-45 37.2444 42.8433)" fill="#FFF4E7"/>
</svg>
