<svg width="49" height="49" viewBox="0 0 49 49" fill="none" xmlns="http://www.w3.org/2000/svg">
<path fill-rule="evenodd" clip-rule="evenodd" d="M44.4647 17.268L46.2053 19.008C47.5833 20.3613 48.3328 22.198 48.3328 24.1313C48.3569 26.0647 47.6075 27.9037 46.2537 29.2788C46.2376 29.2965 46.2215 29.3121 46.2053 29.3277C46.1973 29.3355 46.1892 29.3433 46.1811 29.3513L44.4647 31.0672C43.7878 31.7438 43.401 32.6622 43.401 33.6312V36.118C43.401 40.1297 40.1373 43.3946 36.1242 43.3946H33.6341C32.6671 43.3946 31.7484 43.7788 31.0715 44.4555L29.3309 46.1955C27.9045 47.6237 26.043 48.3222 24.1815 48.3222C22.32 48.3222 20.4585 47.6237 19.0321 46.2221L17.2673 44.4555C16.5904 43.7788 15.6718 43.3946 14.7047 43.3946H12.2147C8.20155 43.3946 4.93787 40.1297 4.93787 36.118V33.6312C4.93787 32.6622 4.55106 31.7438 3.87415 31.043L2.13352 29.3272C-0.695005 26.5021 -0.71918 21.8838 2.10934 19.0346L3.87415 17.268C4.55106 16.5913 4.93787 15.673 4.93787 14.6822V12.2172C4.93787 8.2055 8.20155 4.94541 12.2147 4.94541H14.7047C15.6718 4.94541 16.5904 4.55633 17.2673 3.87966L19.008 2.13966C21.8365 -0.709586 26.454 -0.709586 29.3067 2.11791L31.0715 3.87966C31.7484 4.55633 32.6671 4.94541 33.6341 4.94541H36.1242C40.1373 4.94541 43.401 8.2055 43.401 12.2172V14.7087C43.401 15.673 43.7878 16.5913 44.4647 17.268ZM17.9442 32.493C18.5245 32.493 19.0563 32.2755 19.4431 31.8647L31.8693 19.4455C32.6913 18.6238 32.6913 17.268 31.8693 16.4464C31.0473 15.6271 29.7177 15.6271 28.8957 16.4464L16.4695 28.868C15.6476 29.6897 15.6476 31.043 16.4695 31.8647C16.8563 32.2755 17.3882 32.493 17.9442 32.493ZM28.2675 30.3663C28.2675 31.5505 29.2103 32.493 30.3949 32.493C31.5553 32.493 32.4982 31.5505 32.4982 30.3663C32.4982 29.2087 31.5553 28.2638 30.3949 28.2638C29.2103 28.2638 28.2675 29.2087 28.2675 30.3663ZM17.9686 15.8421C19.129 15.8421 20.0718 16.7846 20.0718 17.9446C20.0718 19.1312 19.129 20.0713 17.9686 20.0713C16.8081 20.0713 15.8411 19.1312 15.8411 17.9446C15.8411 16.7846 16.8081 15.8421 17.9686 15.8421Z" fill="#FDC886"/>
</svg>
