<svg width="58" height="58" viewBox="0 0 58 58" fill="none" xmlns="http://www.w3.org/2000/svg">
<path d="M11.4428 46.5042C9.95232 45.0138 9.95232 42.5973 11.4428 41.1069L31.5329 21.0168L36.9302 26.4141L16.8401 46.5042C15.3497 47.9946 12.9332 47.9946 11.4428 46.5042Z" fill="#FDC886"/>
<path d="M30.9332 20.4172C30.2708 19.7548 30.2708 18.6808 30.9332 18.0184L35.7308 13.2207L44.7264 22.2163L39.9287 27.0139C39.2663 27.6764 38.1923 27.6764 37.5299 27.0139L30.9332 20.4172Z" fill="#FDC886"/>
<rect x="33.3319" y="15.6196" width="11.0254" height="2.54433" transform="rotate(-45 33.3319 15.6196)" fill="#FDC886"/>
<rect x="36.9302" y="19.2178" width="11.0254" height="2.54433" transform="rotate(-45 36.9302 19.2178)" fill="#FDC886"/>
<rect x="40.5284" y="22.816" width="11.0254" height="2.54433" transform="rotate(-45 40.5284 22.816)" fill="#FDC886"/>
<path d="M13.7537 6.47597L12.5667 5.26985L11.7378 6.74526C10.2249 9.43847 8.66966 16.1339 14.1306 21.8741L26.9446 35.3434L27.8214 36.2651L28.7431 35.3882L29.5348 34.635L41.71 48.1264C43.4088 50.0088 46.3028 50.1821 48.2141 48.5158C50.2318 46.7567 50.3501 43.661 48.4724 41.7531L13.7537 6.47597Z" fill="#FDC886" stroke="#FFF4E7" stroke-width="2.54433"/>
</svg>
