<svg width="36" height="42" viewBox="0 0 36 42" fill="none" xmlns="http://www.w3.org/2000/svg">
<path fill-rule="evenodd" clip-rule="evenodd" d="M17.1419 41.4868C17.3726 41.6073 17.6306 41.6686 17.8885 41.6666C18.1465 41.6645 18.4024 41.6012 18.6352 41.4786L26.0683 37.5051C28.1761 36.3815 29.8268 35.1251 31.1145 33.6624C33.9145 30.4754 35.4435 26.408 35.4163 22.2138L35.3282 8.37913C35.3198 6.78565 34.2732 5.36377 32.7253 4.84691L18.8974 0.207425C18.0647 -0.0744984 17.1524 -0.0683696 16.3344 0.221726L2.55884 5.02669C1.01937 5.56398 -0.0083385 6.99607 5.09831e-05 8.59159L0.0881406 22.4161C0.115406 26.6163 1.69682 30.6654 4.54296 33.8197C5.84333 35.262 7.50864 36.5 9.63957 37.6052L17.1419 41.4868ZM15.1743 25.2266C15.4847 25.5249 15.8874 25.672 16.2901 25.6679C16.6928 25.6658 17.0934 25.5147 17.3996 25.2123L25.5227 17.204C26.1331 16.6014 26.1268 15.633 25.5101 15.0385C24.8914 14.444 23.8952 14.4481 23.2848 15.0508L16.267 21.9681L13.3936 19.2061C12.7749 18.6116 11.7807 18.6177 11.1683 19.2204C10.558 19.8231 10.5643 20.7914 11.183 21.3859L15.1743 25.2266Z" fill="#FDC886"/>
</svg>
